<svg width="297" height="93" viewBox="0 0 297 93" fill="none" xmlns="http://www.w3.org/2000/svg">
<g clip-path="url(#clip0_2019_7504)">
<mask id="mask0_2019_7504" style="mask-type:luminance" maskUnits="userSpaceOnUse" x="0" y="0" width="297" height="93">
<path d="M297 0H0V93H297V0Z" fill="white"/>
</mask>
<g mask="url(#mask0_2019_7504)">
<path d="M89.732 30.0765C89.732 25.4637 88.7205 23.6928 86.5147 23.6928C84.309 23.6928 83.2694 25.4637 83.2694 30.0765C83.2694 34.6894 84.2809 36.4603 86.5147 36.4603C88.7486 36.4603 89.732 34.6609 89.732 30.0765ZM79.6025 30.0765C79.6025 25.3923 82.1033 22.4932 86.5147 22.4932C90.9262 22.4932 93.4129 25.3923 93.4129 30.0765C93.4129 34.7608 90.9121 37.6599 86.5147 37.6599C82.1173 37.6599 79.6025 34.7608 79.6025 30.0765Z" fill="white"/>
<path d="M100.325 36.6317L100.002 37.4029H94.017V36.7031L95.0285 36.2604V29.4482L94.0029 27.8058V27.5345L97.7119 26.292H98.2317L98.1615 28.8341H98.2598C98.7516 27.563 99.7069 26.292 101.323 26.292C102.629 26.292 103.402 27.0632 103.402 28.2914C103.402 29.4196 102.643 30.1051 101.702 30.1051C100.648 30.1051 100.016 29.3768 100.016 28.3628C99.3978 28.6341 98.8078 29.2054 98.2458 29.9623V36.1747L100.325 36.646V36.6317Z" fill="white"/>
<path d="M106.338 30.577H109.794C109.836 30.3771 109.864 30.0486 109.864 29.6487C109.864 28.4776 109.541 27.4351 108.389 27.4351C107.307 27.4351 106.521 28.4634 106.324 30.577M109.387 35.5612C110.497 35.5612 111.129 35.2898 112.042 34.5901L112.506 35.1327C111.719 36.9322 110.23 37.6463 108.136 37.6463C105.34 37.6463 103.135 35.8182 103.135 32.1051C103.135 28.392 105.636 26.2783 108.6 26.2783C111.002 26.2783 112.674 27.6922 112.674 30.3199C112.674 30.7198 112.646 31.2625 112.548 31.7481H106.268C106.324 34.0188 107.293 35.5612 109.387 35.5612Z" fill="white"/>
<path d="M118.154 27.4064C116.903 27.4064 116.678 28.3775 116.678 30.0056C116.678 31.6336 116.903 32.5762 118.154 32.5762C119.404 32.5762 119.657 31.6051 119.657 30.0056C119.657 28.4061 119.432 27.4064 118.154 27.4064ZM115.625 39.9025C115.625 41.2307 116.58 41.8448 118.28 41.8448C120.219 41.8448 121.694 41.3021 121.694 39.7311C121.694 38.7886 121.202 38.203 119.755 38.203H116.664C116.032 38.5458 115.639 39.1028 115.639 39.9025M120.542 35.2325C122.874 35.2325 124.349 36.375 124.349 38.7743C124.349 41.8162 121.385 42.9444 118.139 42.9444C115.147 42.9444 112.941 42.2447 112.941 40.331C112.941 38.9028 114.051 38.2602 115.709 38.0174V37.946C114.318 37.7746 113.531 36.9463 113.531 35.6467C113.531 34.3471 114.487 33.5759 115.835 33.3045C114.43 32.8047 113.559 31.805 113.559 30.1912C113.559 27.9919 115.175 26.3067 118.266 26.3067C119.544 26.3067 121.034 26.5495 122.186 27.135C122.087 26.9779 122.045 26.778 122.045 26.5352C122.045 25.7354 122.635 25.2356 123.394 25.2356C124.153 25.2356 124.743 25.7783 124.743 26.6637C124.743 27.6063 124.124 28.1347 123.239 28.1347C122.607 28.1347 122.017 27.8919 121.301 27.6063V27.8491C122.158 28.249 122.748 29.0916 122.748 30.2198C122.748 32.619 120.387 33.6901 118.238 33.6901C117.704 33.6901 117.212 33.633 116.749 33.5188C116.229 33.6901 115.835 33.9615 115.835 34.5185C115.835 35.0183 116.13 35.2611 116.721 35.2611H120.542V35.2325Z" fill="white"/>
<path d="M129.267 36.5174C130.91 36.5174 131.346 34.8751 131.346 31.976C131.346 29.0769 130.91 27.4345 129.267 27.4345C127.623 27.4345 127.187 29.0769 127.187 31.976C127.187 34.8751 127.623 36.5174 129.267 36.5174ZM129.267 37.6599C125.951 37.6599 123.773 35.7462 123.773 31.976C123.773 28.2057 125.951 26.292 129.267 26.292C132.582 26.292 134.76 28.2057 134.76 31.976C134.76 35.7462 132.582 37.6599 129.267 37.6599Z" fill="white"/>
<path d="M147.643 36.6894L147.32 37.4178H141.953V36.718L142.965 36.2467V30.8055C142.965 29.1774 142.136 28.6347 141.223 28.6347C140.394 28.6347 139.719 29.0632 139.284 29.4773V36.2038L140.731 36.6751L140.408 37.4035H135.055V36.7037L136.067 36.2467V29.4202L135.041 27.7779V27.5065L138.75 26.2783H139.27L139.2 28.4491H139.298C140.183 27.0352 141.405 26.2783 143.049 26.2783C144.833 26.2783 146.21 27.5494 146.21 30.0914V36.2038L147.657 36.6751L147.643 36.6894Z" fill="white"/>
<path d="M157.871 34.447C157.871 33.1046 157.182 32.4476 155.567 31.805L153.796 31.0623C151.984 30.3197 150.93 29.0629 150.93 26.7779C150.93 23.8074 153.192 22.5078 155.567 22.5078C156.873 22.5078 157.927 22.8077 158.685 23.0505L159.894 22.5078L160.119 26.6494L159.458 26.7922L158.278 25.2213C157.548 24.1787 156.775 23.6218 155.51 23.6218C154.358 23.6218 153.572 24.3644 153.572 25.5212C153.572 26.678 154.091 27.3349 155.553 27.9347L157.393 28.6773C159.697 29.5913 160.709 30.9481 160.709 33.2331C160.709 36.2322 158.475 37.646 155.848 37.646C154.077 37.646 153.15 37.2033 152.462 36.8463L151.141 37.646L150.72 32.9046L151.478 32.7475L152.686 34.5184C153.501 35.7894 154.4 36.4607 155.805 36.4607C157.112 36.4607 157.885 35.718 157.885 34.4184" fill="white"/>
<path d="M160.891 27.006L164.811 23.5928H165.541V26.5347H168.773L168.604 27.8343H165.569V33.7182C165.569 35.1606 166.103 35.7176 167.087 35.7176C167.719 35.7176 168.211 35.5748 168.899 35.1892L169.152 35.789C168.393 36.9601 167.171 37.6599 165.597 37.6599C163.687 37.6599 162.352 36.6887 162.352 34.1467V27.8343H160.877V27.006H160.891Z" fill="white"/>
<path d="M174.673 32.5478C173.226 32.5478 172.397 32.9191 172.397 34.2473C172.397 35.1756 172.931 35.7897 173.788 35.7897C174.322 35.7897 174.772 35.6612 175.207 35.2613V32.5478H174.673ZM178.425 35.0185C178.425 36.1467 178.818 36.3895 179.97 36.261L180.04 36.7608C179.422 37.3606 178.621 37.6605 177.469 37.6605C176.416 37.6605 175.53 37.2178 175.334 36.061L175.263 36.0325C174.744 37.1607 173.62 37.6605 172.299 37.6605C170.655 37.6605 169.307 36.7323 169.307 34.6615C169.307 32.4621 171.021 31.391 173.746 31.391C174.266 31.391 174.828 31.491 175.221 31.591V30.6484C175.221 29.206 174.308 28.4776 172.861 28.4776C171.835 28.4776 170.978 28.6776 169.939 29.2203L169.644 28.4919C170.698 27.0495 172.397 26.2783 174.406 26.2783C176.416 26.2783 178.425 27.2066 178.425 30.2485V35.0042V35.0185Z" fill="white"/>
<path d="M178.86 27.006L182.78 23.5928H183.51V26.5347H186.742L186.573 27.8343H183.524V33.7182C183.524 35.1606 184.058 35.7176 185.042 35.7176C185.674 35.7176 186.166 35.5748 186.854 35.1892L187.107 35.789C186.348 36.9601 185.126 37.6599 183.553 37.6599C181.642 37.6599 180.307 36.6887 180.307 34.1467V27.8343H178.832V27.006H178.86Z" fill="white"/>
<path d="M190.1 30.577H193.556C193.598 30.3771 193.626 30.0486 193.626 29.6487C193.626 28.4776 193.303 27.4351 192.151 27.4351C191.069 27.4351 190.282 28.4634 190.086 30.577M193.148 35.5612C194.258 35.5612 194.89 35.2898 195.804 34.5901L196.267 35.1327C195.481 36.9322 193.991 37.6463 191.898 37.6463C189.102 37.6463 186.896 35.8182 186.896 32.1051C186.896 28.392 189.397 26.2783 192.362 26.2783C194.764 26.2783 196.436 27.6922 196.436 30.3199C196.436 30.7198 196.408 31.2625 196.309 31.7481H190.029C190.072 34.0188 191.055 35.5612 193.148 35.5612Z" fill="white"/>
<path d="M211.707 32.2195C211.707 35.6899 209.501 37.6607 206.087 37.6607C202.673 37.6607 200.2 36.1897 200.2 32.3195V24.122L198.627 23.5507L198.796 22.751H204.907L205.104 23.5507L203.53 24.122V32.2766C203.53 34.9187 204.71 36.0183 206.691 36.0183C208.672 36.0183 210.049 34.8187 210.049 32.2052V24.122L208.18 23.5507L208.377 22.751H213.055L213.252 23.5507L211.679 24.122V32.2195H211.707Z" fill="white"/>
<path d="M225.293 36.6894L224.969 37.4178H219.603V36.718L220.614 36.2467V30.8055C220.614 29.1774 219.785 28.6347 218.872 28.6347C218.043 28.6347 217.369 29.0632 216.933 29.4773V36.2038L218.38 36.6751L218.057 37.4035H212.704V36.7037L213.716 36.2467V29.4202L212.69 27.7779V27.5065L216.399 26.2783H216.919L216.849 28.4491H216.947C217.832 27.0352 219.055 26.2783 220.698 26.2783C222.483 26.2783 223.86 27.5494 223.86 30.0914V36.2038L225.307 36.6751L225.293 36.6894Z" fill="white"/>
<path d="M228.088 20.9229C229.198 20.9229 230.069 21.8226 230.069 22.9651C230.069 24.1076 229.184 24.9645 228.088 24.9645C226.992 24.9645 226.107 24.0933 226.107 22.9651C226.107 21.8369 226.964 20.9229 228.088 20.9229ZM231.151 36.6894L230.828 37.4178H225.475V36.718L226.487 36.261V29.4345L225.461 27.7922V27.5208L229.17 26.2926H229.704V36.2182L231.151 36.6894Z" fill="white"/>
<path d="M239.257 27.8637L237.712 27.3924L237.838 26.5498H241.983L242.123 27.3781L240.999 27.778L237.347 37.4322H234.916L231.263 28.0779L230.153 27.3353L230.322 26.5641H235.984L236.152 27.4352L234.579 27.8066L236.082 32.1195C236.644 33.7904 236.841 35.0186 236.841 35.0186H236.939C236.939 35.0186 237.178 33.7762 237.796 32.1052L239.243 27.8923L239.257 27.8637Z" fill="white"/>
<path d="M244.358 30.577H247.814C247.856 30.3771 247.884 30.0486 247.884 29.6487C247.884 28.4776 247.561 27.4351 246.409 27.4351C245.327 27.4351 244.54 28.4634 244.343 30.577M247.406 35.5612C248.516 35.5612 249.148 35.2898 250.062 34.5901L250.525 35.1327C249.738 36.9322 248.249 37.6463 246.156 37.6463C243.36 37.6463 241.154 35.8182 241.154 32.1051C241.154 28.392 243.655 26.2783 246.619 26.2783C249.022 26.2783 250.694 27.6922 250.694 30.3199C250.694 30.7198 250.666 31.2625 250.567 31.7481H244.287C244.343 34.0188 245.313 35.5612 247.406 35.5612Z" fill="white"/>
<path d="M257.325 36.6317L257.002 37.4029H251.017V36.7031L252.029 36.2604V29.4482L251.003 27.8058V27.5345L254.712 26.292H255.232L255.161 28.8341H255.26C255.752 27.563 256.707 26.292 258.323 26.292C259.615 26.292 260.402 27.0632 260.402 28.2914C260.402 29.4196 259.643 30.1051 258.702 30.1051C257.648 30.1051 257.002 29.3768 257.002 28.3628C256.384 28.6341 255.808 29.2054 255.232 29.9623V36.1747L257.311 36.646L257.325 36.6317Z" fill="white"/>
<path d="M260.991 33.8474C262.298 36.0467 263.197 36.5894 264.574 36.5894C265.557 36.5894 266.274 36.261 266.274 35.2613C266.274 34.4615 265.81 34.0188 264.7 33.6618L263.113 33.1334C261.427 32.6049 260.486 31.6195 260.486 29.763C260.486 27.3494 262.129 26.2783 264.335 26.2783C265.164 26.2783 266.105 26.4783 266.667 26.7782L268.016 26.3069L268.086 29.5773L267.496 29.7201C266.513 28.1206 265.585 27.4065 264.349 27.4065C263.464 27.4065 262.93 27.8778 262.93 28.6062C262.93 29.3345 263.295 29.7058 264.152 30.0057L265.923 30.6056C267.932 31.2768 268.845 32.3193 268.845 34.2187C268.845 36.6323 267.173 37.6605 264.504 37.6605C263.576 37.6605 262.593 37.4178 261.876 37.0893L260.598 37.6605L260.331 33.9902L260.991 33.8331V33.8474Z" fill="white"/>
<path d="M271.781 20.9229C272.891 20.9229 273.762 21.8226 273.762 22.9651C273.762 24.1076 272.877 24.9645 271.781 24.9645C270.686 24.9645 269.801 24.0933 269.801 22.9651C269.801 21.8369 270.658 20.9229 271.781 20.9229ZM274.844 36.6894L274.521 37.4178H269.168V36.718L270.18 36.261V29.4345L269.154 27.7922V27.5208L272.863 26.2926H273.397V36.2182L274.844 36.6894Z" fill="white"/>
<path d="M274.282 27.006L278.202 23.5928H278.933V26.5347H282.164L281.995 27.8343H278.961V33.7182C278.961 35.1606 279.494 35.7176 280.478 35.7176C281.124 35.7176 281.602 35.5748 282.29 35.1892L282.543 35.789C281.785 36.9601 280.562 37.6599 278.989 37.6599C277.078 37.6599 275.757 36.6887 275.757 34.1467V27.8343H274.282V27.006Z" fill="white"/>
<path d="M282.108 28.0636L280.998 27.321L281.166 26.5498H286.856L286.997 27.421L285.423 27.7923L287.011 31.9053C287.699 33.7047 287.769 34.8473 287.769 34.8473H287.868C287.868 34.8473 288.135 33.5762 288.697 31.8767L290.045 27.8637L288.5 27.3924L288.626 26.5498H292.743L292.897 27.3781L291.773 27.778L288.163 37.6036C286.884 41.0882 285.536 42.8591 283.063 42.8591C281.518 42.8591 280.829 41.9308 280.829 40.8454C280.829 39.76 281.447 39.1174 282.473 39.1174C283.498 39.1174 283.99 39.86 283.99 40.6598C283.99 41.1882 283.765 41.5024 283.597 41.7023C284.65 41.6023 285.774 40.1028 286.322 38.4176L282.079 28.0636H282.108Z" fill="white"/>
<path d="M71.3697 32.9617C70.8218 29.7198 70.021 27.0778 68.9533 24.907C68.026 23.0219 66.874 21.4795 65.5252 20.337C63.6427 18.7375 61.3807 17.8949 58.9643 17.8949C57.8263 17.8949 56.7164 18.052 55.6627 18.3519L59.2031 10.6543L51.9678 5.42729H46.7555C45.8704 5.42729 44.901 4.74178 43.6647 3.87062C41.4871 2.34252 38.5086 0.243164 33.465 0.243164C29.2081 0.243164 25.8503 1.4428 23.195 3.92775C23.195 3.92775 5.97071 21.0082 5.87237 21.1082C4.87487 22.1364 3.98977 23.4218 3.27327 24.8927C2.20553 27.0778 1.40472 29.7055 0.856805 32.9474C-0.295229 39.7453 -0.0704422 46.5289 1.51712 52.5842C3.23112 59.1108 6.35004 65.3803 10.8036 71.2071C16.2547 78.3335 23.7008 84.8029 32.9452 90.4297L36.1203 92.3577L39.2954 90.4297C48.5398 84.7886 55.9858 78.3192 61.4369 71.2071C65.8905 65.3803 69.0235 59.1108 70.7234 52.5842C72.311 46.5289 72.5358 39.7453 71.3838 32.9474" fill="white"/>
<path d="M31.0207 25.75H21.4111L20.54 40.4598C21.0739 40.5455 21.5797 40.7025 22.0714 40.931L31.0207 25.7643V25.75Z" fill="#231F20"/>
<path d="M23.5462 59.0966C23.5462 59.0966 23.49 59.068 23.4619 59.0537V60.2533C23.6165 60.3247 23.771 60.3962 23.9396 60.4676C24.6701 60.7675 25.5552 61.0103 26.9321 61.0103C28.4213 61.0103 29.3485 60.7246 30.1212 60.3819V59.1965C29.3204 59.5821 28.4915 59.9249 26.9321 59.9249C25.499 59.9249 24.6982 59.6392 23.9396 59.2822C23.8131 59.2251 23.6727 59.1537 23.5462 59.0966Z" fill="#231F20"/>
<path d="M23.9533 63.667C23.8128 63.6099 23.6863 63.5384 23.5599 63.4813C23.5318 63.4813 23.5037 63.4528 23.4756 63.4385V64.6381C23.6301 64.7095 23.7847 64.7809 23.9533 64.8523C24.6838 65.1522 25.5689 65.395 26.9457 65.395C27.9994 65.395 28.7581 65.2522 29.3903 65.0523V63.9098C28.7721 64.1525 28.0416 64.3239 26.9457 64.3239C25.5127 64.3239 24.6979 64.0383 23.9533 63.6813" fill="#231F20"/>
<path d="M23.9533 68.0371C23.8128 67.98 23.6863 67.9086 23.5599 67.8514C23.5318 67.8514 23.5037 67.8229 23.4756 67.8086V69.0082C23.6301 69.0796 23.7847 69.151 23.9533 69.2224C24.6838 69.5224 25.5689 69.7651 26.9457 69.7651C27.4937 69.7651 27.9573 69.7223 28.3647 69.6652V68.5655C27.9573 68.6369 27.4937 68.6798 26.9457 68.6798C25.5127 68.6798 24.6979 68.3941 23.9533 68.0371Z" fill="#231F20"/>
<path d="M34.7578 5.49915C35.5586 5.67053 36.3313 5.94187 37.0479 6.29891C37.7784 6.67022 38.4528 7.11294 39.1271 7.61279C40.1246 8.34114 41.1362 9.19801 42.3163 9.86924V8.05551C41.5015 7.59851 40.6866 7.05582 39.8436 6.51313C39.099 6.04184 38.3263 5.6134 37.4834 5.27065C36.6545 4.9279 35.7694 4.6994 34.8983 4.58515C34.0132 4.4709 33.1281 4.45661 32.2571 4.52802C32.2009 4.52802 32.1587 4.52802 32.1025 4.5423V5.25637C32.1025 5.25637 32.2149 5.25637 32.2852 5.25637C33.1281 5.25637 33.943 5.32778 34.7438 5.49915" fill="#231F20"/>
<path d="M68.2223 51.9275C67.2248 55.7406 65.7074 59.468 63.6984 63.0669C63.6001 63.2526 63.4877 63.4382 63.3893 63.6239C63.305 63.7667 63.2348 63.8952 63.1505 64.038C63.0521 64.2094 62.9398 64.3951 62.8274 64.5664C62.7431 64.7235 62.6447 64.8664 62.5464 65.0235C62.448 65.1805 62.3497 65.3519 62.2513 65.509C62.0687 65.7946 61.8861 66.0946 61.6894 66.3802C61.6191 66.4944 61.5348 66.6087 61.4646 66.7086C61.3241 66.9229 61.1836 67.1371 61.0291 67.3513C60.9448 67.4656 60.8605 67.5941 60.7762 67.7083C60.6216 67.9226 60.4811 68.1368 60.3266 68.351C60.2564 68.451 60.1721 68.5652 60.1018 68.6652C59.877 68.9794 59.6382 69.2793 59.4134 69.5935C59.1886 69.8791 58.9638 70.1647 58.739 70.4504C56.2664 73.578 53.3722 76.5628 50.0988 79.419C47.6823 81.5184 45.0411 83.5321 42.2031 85.4743C40.8404 86.4026 39.4495 87.3166 37.9884 88.202L36.1479 89.3303L34.3075 88.202C25.3301 82.7323 18.1228 76.4771 12.8825 69.6078C12.7279 69.4078 12.5874 69.2079 12.4329 69.0079C12.3346 68.8651 12.2222 68.7366 12.1238 68.5938C11.9412 68.351 11.7585 68.0939 11.5899 67.8369C11.5337 67.7512 11.4635 67.6655 11.4073 67.5655C11.2106 67.2799 11.0139 66.98 10.8172 66.6944C10.7891 66.6515 10.747 66.5944 10.7189 66.5516C10.5082 66.2374 10.2974 65.9089 10.0867 65.5804C10.0867 65.5661 10.0586 65.5376 10.0445 65.5233C7.29089 61.1675 5.28186 56.6118 4.04553 51.9132C2.55631 46.2292 2.34557 39.8169 3.44141 33.3903C3.79264 31.291 4.25627 29.4915 4.83228 27.9348C5.00087 29.0916 5.45045 30.1485 6.09671 31.0625C5.88597 31.8908 5.70333 32.7762 5.53474 33.7616C5.26781 35.2897 5.08517 36.8178 4.98682 38.3316L14.9618 43.0731C15.1303 42.8017 15.313 42.5446 15.5237 42.3019C15.6783 42.1305 15.8328 41.9734 16.0154 41.8163L9.97429 33.8188C10.5784 33.9901 11.2247 34.0901 11.885 34.0901C12.3627 34.0901 12.8263 34.033 13.2758 33.9473L17.3782 40.9023C17.8699 40.6738 18.3757 40.5167 18.9096 40.431L18.2914 30.0056C18.5021 29.5772 18.6707 29.1202 18.7972 28.6346L20.2583 23.7504L20.3145 23.579H52.2905L52.5153 23.322C53.6532 22.0367 55.7044 20.4943 59.006 20.4943C60.8043 20.4943 62.5042 21.1369 63.9091 22.3366C64.9769 23.2506 65.9182 24.5073 66.6909 26.064C67.6462 28.0063 68.3627 30.4055 68.8685 33.4046C69.9643 39.8312 69.7536 46.2292 68.2644 51.9275M17.2939 28.2633C16.7039 30.6197 14.737 32.3049 12.3907 32.5334C12.2081 32.5477 12.0255 32.562 11.8288 32.562C8.85035 32.562 6.41984 30.2056 6.22315 27.2208C6.22315 27.0922 6.2091 26.9637 6.2091 26.8352C6.2091 25.2642 6.85537 23.7647 7.9793 22.665C8.10574 22.5508 13.4725 17.2239 13.4725 17.2239H18.9517V22.7079L17.2939 28.2633ZM24.9507 5.85591C25.7375 5.11329 28.1399 2.87112 33.4645 2.87112C37.6933 2.87112 40.0958 4.55631 42.2031 6.04157C43.7345 7.12695 45.0692 8.05524 46.7551 8.05524H51.1384L55.9433 11.5256L53.9483 15.8528H49.6211C48.9889 15.81 48.3707 15.5815 47.879 15.1531C47.2609 14.6246 46.8815 13.8106 46.8113 12.9252H46.0526C46.0245 13.4536 46.0807 13.9963 46.2493 14.5247C46.4179 15.0531 46.6989 15.5529 47.0782 15.9814C47.2468 16.167 47.4294 16.3384 47.6261 16.4955L46.5584 18.8234L49.5087 22.0652H47.2749L43.3973 18.6805H42.4982L45.3502 22.0652H39.6181L36.3025 18.6948H34.3356C34.729 17.7951 34.9678 16.8097 35.01 15.8386C35.01 15.6529 35.01 15.4815 35.01 15.2959L34.9678 14.7532V14.4818L34.8976 14.2105L34.7992 13.6821C34.6306 12.9823 34.3918 12.3111 34.0406 11.6827C33.6893 11.0686 33.296 10.4831 32.8042 9.98322L32.6216 9.79756L32.4249 9.62618C32.2985 9.51193 32.172 9.39768 32.0315 9.28343C31.7505 9.08349 31.4696 8.86928 31.1745 8.6979C30.2473 8.14093 29.2076 7.82674 28.1539 7.71249C27.8449 7.68392 27.5498 7.66964 27.2407 7.66964V8.41227C28.463 8.4694 29.6853 8.81215 30.6969 9.49765C30.9638 9.65475 31.1886 9.85469 31.4274 10.0403C31.5398 10.1403 31.6522 10.2546 31.7505 10.3545L31.9191 10.5116L32.0596 10.683C32.467 11.1257 32.7902 11.6541 33.0571 12.1968C33.3241 12.7395 33.4926 13.325 33.605 13.9106L33.6612 14.3533L33.6893 14.5818V14.8103L33.7034 15.2673C33.7034 15.4244 33.7034 15.5672 33.6753 15.71C33.5629 16.8954 33.1274 18.0379 32.4249 18.9805L31.5258 20.1944H35.6562L37.4545 22.0224H20.469V15.6529H15.032L24.9507 5.81307V5.85591ZM70.3296 33.1475C69.7958 30.0056 69.0371 27.4636 68.0115 25.3785C67.1545 23.6219 66.0868 22.208 64.8504 21.1512C63.1645 19.7088 61.1274 18.9519 58.9779 18.9519C56.0837 18.9519 53.4846 20.0373 51.6021 22.0224L48.3988 18.5092L48.9187 17.3809H53.2739L52.7541 18.5092H54.4259L57.882 10.9972L51.6442 6.49857H46.7691C45.5469 6.49857 44.451 5.72738 43.0742 4.75625C40.8966 3.22815 38.1851 1.31445 33.4786 1.31445C29.5027 1.31445 26.3697 2.4284 23.9251 4.71341L12.8684 15.6672C12.8684 15.6672 6.65868 21.8367 6.64463 21.851C5.71738 22.8078 4.91658 23.9789 4.22817 25.3642C3.20258 27.4493 2.44392 29.9914 1.91005 33.1332C0.786114 39.7741 0.996852 46.4149 2.54226 52.3131C4.21412 58.6968 7.27684 64.8378 11.6461 70.5503C17.0129 77.5625 24.3607 83.9462 33.4926 89.5159L36.1198 91.1154L38.747 89.5159C47.879 83.9462 55.2267 77.5625 60.5935 70.5503C64.9628 64.8378 68.0256 58.6968 69.6974 52.3131C71.2428 46.4149 71.4676 39.7883 70.3437 33.1332" fill="#231F20"/>
<path d="M51.5182 11.9967C51.9678 11.9967 52.3331 11.6254 52.3331 11.1684C52.3331 10.7114 51.9678 10.3401 51.5182 10.3401C51.0686 10.3401 50.7034 10.7114 50.7034 11.1684C50.7034 11.6254 51.0686 11.9967 51.5182 11.9967Z" fill="#231F20"/>
<path d="M46.8401 11.5972C46.8401 11.5972 46.8401 11.5972 46.8401 11.5829C46.8682 11.4543 47.1351 10.4832 48.1045 10.3118V9.52637H46.0674V11.5972H46.8401Z" fill="#231F20"/>
<path d="M41.3466 55.8976C42.2598 56.3403 43.3135 56.8544 45.2944 56.8544C46.6291 56.8544 47.5423 56.6259 48.2728 56.326C48.2728 56.326 48.2869 56.326 48.3009 56.326C48.6381 56.1832 48.9332 56.0404 49.2282 55.8976C49.2422 55.8976 49.2703 55.8833 49.2844 55.869C49.453 55.7833 49.6216 55.7119 49.7902 55.6262C49.8183 55.6262 49.8464 55.5976 49.8745 55.5834L51.757 57.0258V72.7924L50.8157 71.9926V57.5685L49.7621 56.7544V71.7355C49.3687 71.8784 49.0315 72.0497 48.6943 72.2068C48.6241 72.2354 48.5538 72.2782 48.4695 72.3211C47.6687 72.7067 46.8539 73.0494 45.3085 73.0494C43.6226 73.0494 42.7937 72.6496 41.9226 72.2211C40.9954 71.7641 40.04 71.3071 38.1996 71.2928L38.0872 69.879L37.9607 68.2509L42.7375 70.6502L42.4143 69.0935L40.1946 58.5396L41.9648 58.9109L41.3185 55.869C41.3185 55.869 41.3466 55.8833 41.3747 55.8976M30.908 55.8976C30.908 55.8976 30.9361 55.8833 30.9642 55.869L30.318 58.8966L32.0882 58.5396L29.5453 70.6502L34.2939 68.2652L34.1815 69.8933L34.0691 71.3071C32.2287 71.3214 31.2733 71.7927 30.3601 72.2354C29.4891 72.6638 28.6602 73.0637 26.9743 73.0637C25.4289 73.0637 24.614 72.721 23.8132 72.3354C23.7429 72.3068 23.6727 72.264 23.5884 72.2211C23.2512 72.064 22.9 71.8926 22.5207 71.7498V56.7687L22.4785 56.7973L21.467 57.5685V71.9926L20.5257 72.7924V57.0258L22.4083 55.5834C22.4083 55.5834 22.4645 55.6119 22.4926 55.6262C22.619 55.6833 22.7455 55.7405 22.8719 55.7976C22.9281 55.8262 22.9983 55.8547 23.0545 55.8833C23.3496 56.0261 23.6446 56.1689 23.9818 56.2974C23.9818 56.2974 23.9958 56.2974 24.0099 56.2974C24.7404 56.5831 25.6536 56.8258 26.9883 56.8258C28.9692 56.8258 30.0089 56.3117 30.9361 55.869M48.7927 73.3636C48.9332 73.3065 49.0596 73.2351 49.186 73.178C49.4951 73.0352 49.7902 72.8781 50.1273 72.7638L50.9703 73.4779C50.7315 73.5493 50.5207 73.635 50.2959 73.7349C50.2678 73.7349 50.2538 73.7492 50.2257 73.7635C50.0992 73.8206 49.9728 73.8777 49.8323 73.9492C49.7761 73.9777 49.7199 74.0063 49.6637 74.0348C48.6662 74.5204 47.4861 75.0345 45.3366 75.0345C43.0606 75.0345 41.8805 74.4633 40.8408 73.9492C40.0962 73.5778 39.5342 73.3065 38.3822 73.2779L38.326 72.5924V72.3639C39.8574 72.3925 40.6582 72.7781 41.5011 73.1922C42.4424 73.6492 43.4118 74.1205 45.3506 74.1205C47.0084 74.1205 47.9638 73.7635 48.8067 73.3779M33.9989 72.5924L33.9427 73.2922C32.7906 73.3351 32.2427 73.5921 31.4981 73.9634C30.4585 74.4776 29.2643 75.0488 27.0024 75.0488C24.8528 75.0488 23.6868 74.5347 22.6752 74.0491C22.619 74.0206 22.5628 73.992 22.5066 73.9634C22.3521 73.892 22.1975 73.8063 22.057 73.7492C22.0289 73.7492 22.0149 73.7349 21.9868 73.7207C21.7901 73.635 21.5934 73.5636 21.3827 73.4921L22.0149 72.9495L22.043 72.9209L22.2116 72.7781C22.5488 72.9066 22.8438 73.0494 23.1529 73.1922C23.2793 73.2494 23.4058 73.3208 23.5463 73.3779C24.3752 73.7635 25.3305 74.1205 27.0024 74.1205C28.9271 74.1205 29.9105 73.6492 30.8518 73.1922C31.6948 72.7781 32.4815 72.4068 34.027 72.3639V72.5924H33.9989ZM37.0756 69.4934L37.4269 80.2758H34.898L35.2633 69.4791L35.3195 67.7225L36.1484 67.3083L37.0054 67.7368L37.0616 69.4934H37.0756ZM40.026 56.9258L38.312 56.5688L40.6582 67.9796L36.1484 66.1373L31.6526 67.9796L33.9989 56.5545L32.2849 56.9115L34.5187 46.0577L33.2262 46.3291L36.0079 31.2194H36.2889L39.0706 46.3291L37.7781 46.0577L40.0119 56.9115L40.026 56.9258ZM46.3762 37.189L46.1374 37.3604L44.7324 36.3321L43.3275 37.3604L43.0887 37.189L43.6226 35.5181L42.2176 34.4899L42.3019 34.2042H44.03L44.5639 32.5333H44.8448L45.3787 34.2042H47.1068L47.1911 34.4899L45.7861 35.5181L46.32 37.189H46.3762ZM54.2016 34.2756L53.9628 34.447L52.5578 33.4188L51.1529 34.447L50.9141 34.2756L51.448 32.6047L50.043 31.5765L50.1273 31.2908H51.8554L52.3893 29.6199H52.6843L53.2182 31.2908H54.9462L55.0305 31.5765L53.6256 32.6047L54.1595 34.2756H54.2016ZM57.8965 34.4756L57.9808 34.1899H59.7089L60.2428 32.519H60.5237L61.0576 34.1899H62.7857L62.87 34.4756L61.465 35.5038L61.9989 37.1747L61.7601 37.3461L60.3552 36.3179L58.9502 37.3461L58.7114 37.1747L59.2453 35.5038L57.8403 34.4756H57.8965ZM66.7897 33.7615C65.9327 28.6916 63.8815 22.6506 59.0205 22.6506C55.5644 22.6506 53.9628 24.75 53.4008 25.7354H35.6426L23.5041 41.8162C23.6587 41.959 23.7991 42.1018 23.9396 42.2589C24.1925 42.5302 24.4033 42.8301 24.5859 43.1443L33.2824 39.1456L32.5658 42.3446L25.2322 44.7153C25.3727 45.2723 25.4429 45.8435 25.4429 46.4148C25.176 46.3576 24.9512 46.2862 24.7264 46.2148C24.4735 46.1291 24.2487 46.0292 24.0239 45.9149C23.9115 45.8578 23.7991 45.8007 23.6868 45.7578C23.476 45.6579 23.2512 45.5436 23.0124 45.4436C22.5066 45.2294 21.9306 45.0295 21.186 44.9009C21.0877 44.8867 20.9753 44.8724 20.8629 44.8581C20.6943 44.8438 20.5116 44.8295 20.329 44.8153C20.1604 44.8153 20.0059 44.801 19.8232 44.801C19.7951 44.801 19.767 44.801 19.753 44.801C19.7249 44.801 19.6968 44.801 19.6827 44.801C19.5141 44.801 19.3455 44.801 19.177 44.8153C19.0084 44.8153 18.8398 44.8438 18.6852 44.8581C18.5588 44.8581 18.4464 44.8867 18.334 44.9009C17.6175 45.0152 17.0555 45.2008 16.5638 45.4151C16.2969 45.5293 16.058 45.6436 15.8192 45.7578C15.7068 45.8149 15.5804 45.8721 15.468 45.9292C15.2432 46.0292 15.0184 46.1291 14.7796 46.2148C14.5548 46.3005 14.33 46.3576 14.0631 46.4148C14.0631 45.8149 14.1333 45.2151 14.2878 44.6439L4.87488 41.4734C4.87488 42.5874 4.91703 43.7013 5.01537 44.801C5.01537 44.9152 5.04347 45.0152 5.04347 45.1294C5.05752 45.3579 5.08562 45.5864 5.09967 45.8149C5.11371 45.9863 5.12776 46.1577 5.15586 46.3291C5.19801 46.3291 5.25421 46.3291 5.29635 46.3291C5.4228 46.3291 5.54924 46.3291 5.66163 46.3291C5.68973 46.3291 5.71783 46.3291 5.74593 46.3291C5.84427 46.3291 5.94262 46.3291 6.04096 46.3434C6.04096 46.3434 6.06906 46.3434 6.08311 46.3434C6.3079 46.3576 6.51863 46.3862 6.71532 46.429C7.48803 46.5719 8.0219 46.8289 8.59791 47.1145C9.51111 47.5573 10.5648 48.0714 12.5317 48.0714C14.4986 48.0714 15.5523 47.5573 16.4795 47.1145C16.7605 46.9717 17.0274 46.8432 17.3225 46.729C17.8563 46.5147 18.4605 46.3576 19.3315 46.3148C19.4158 46.3148 19.5141 46.3148 19.5984 46.3148C19.6546 46.3148 19.6968 46.3148 19.753 46.3148C19.8092 46.3148 19.8513 46.3148 19.9075 46.3148C20.0059 46.3148 20.1042 46.3148 20.1885 46.3148C21.0174 46.3576 21.5934 46.5004 22.1132 46.7004C22.4364 46.8289 22.7314 46.9717 23.0405 47.1145C23.9537 47.5573 25.0074 48.0714 26.9883 48.0714C28.9692 48.0714 30.0089 47.5573 30.9361 47.1145C31.1609 47.0003 31.3717 46.9003 31.5824 46.8146L31.2452 48.2999L32.6501 48.0143L32.313 49.5852C31.5122 49.7709 30.9361 50.0422 30.3742 50.3278C29.5031 50.7563 28.6742 51.1562 26.9883 51.1562C25.3024 51.1562 24.4735 50.7563 23.6025 50.3278C22.6612 49.8708 21.6918 49.3996 19.753 49.3996C17.8142 49.3996 16.8448 49.8708 15.9035 50.3278C15.0324 50.7563 14.2035 51.1562 12.5176 51.1562C10.8317 51.1562 10.0028 50.7563 9.13178 50.3278C8.56982 50.0565 8.00785 49.7852 7.23514 49.5995C7.23514 49.5995 7.15085 49.5852 7.1087 49.5709C7.0525 49.5709 6.98226 49.5424 6.92606 49.5281C6.85581 49.5138 6.78557 49.4995 6.70127 49.4852C6.65913 49.4852 6.60293 49.471 6.56078 49.4567C6.2798 49.4138 5.97072 49.3996 5.63353 49.3853C5.70378 49.7566 5.78808 50.1136 5.87237 50.4707C6.09716 50.4849 6.29385 50.5135 6.49054 50.5421C6.56078 50.5421 6.63103 50.5706 6.68722 50.5706C6.72937 50.5706 6.78557 50.5849 6.82772 50.5992C6.94011 50.6278 7.03845 50.642 7.1368 50.6706C7.1368 50.6706 7.15085 50.6706 7.1649 50.6706C7.27729 50.6992 7.37564 50.7277 7.47398 50.7706C7.9095 50.9134 8.27478 51.099 8.65411 51.2847C9.59541 51.7417 10.5648 52.213 12.4895 52.213C14.4143 52.213 15.3977 51.7417 16.339 51.2847C17.2101 50.8563 18.039 50.4564 19.7249 50.4564C21.4108 50.4564 22.2397 50.8563 23.1107 51.2847C24.052 51.7417 25.0214 52.213 26.9602 52.213C28.899 52.213 29.8684 51.7417 30.8097 51.2847C31.2031 51.099 31.5824 50.9134 32.046 50.7563L31.3576 53.9839C30.9502 54.141 30.599 54.3123 30.2618 54.4694C29.3767 54.8979 28.604 55.2692 26.9743 55.2692C25.3446 55.2692 24.5719 54.8979 23.6868 54.4694C22.7736 54.0267 21.7199 53.5126 19.7389 53.5126C17.758 53.5126 16.7183 54.0267 15.7911 54.4694C14.906 54.8979 14.1473 55.2692 12.5036 55.2692C10.8598 55.2692 10.1012 54.8979 9.21608 54.4694C8.99129 54.3695 8.76651 54.2552 8.51362 54.141C8.51362 54.141 8.48552 54.141 8.47147 54.1267C8.44337 54.1267 8.41528 54.0981 8.38718 54.0838C7.92355 53.8982 7.40373 53.7268 6.74342 53.6268C6.92606 54.1981 7.12275 54.7551 7.33349 55.3263C8.23264 57.7541 9.34252 60.1391 10.6772 62.467C10.7334 62.5669 10.8036 62.6812 10.8598 62.7812C10.9582 62.9383 11.0565 63.1096 11.1549 63.281C11.2251 63.3953 11.2954 63.5238 11.3797 63.6523C11.478 63.8094 11.5763 63.9665 11.6606 64.1236C11.7449 64.2521 11.8292 64.3807 11.9135 64.5092C12.0119 64.652 12.0962 64.8091 12.1945 64.9519C12.2929 65.0947 12.3771 65.2375 12.4755 65.3804C12.5738 65.5232 12.6581 65.6517 12.7424 65.7945C12.8548 65.9516 12.9532 66.1087 13.0656 66.2515C13.1499 66.3801 13.2341 66.4943 13.3184 66.6228C13.4449 66.7942 13.5713 66.9799 13.6978 67.1512C13.768 67.2512 13.8383 67.3512 13.9085 67.4511C14.1192 67.7225 14.3159 68.0081 14.5267 68.2795C19.6125 74.9346 26.623 81.0041 35.3757 86.3453L36.1343 86.8023L36.893 86.3453C45.6316 81.0041 52.6562 74.9346 57.742 68.2795C57.742 68.2795 57.742 68.2652 57.7561 68.2509C58.0651 67.8368 58.3742 67.4226 58.6833 67.0084C58.7254 66.9513 58.7535 66.9085 58.7957 66.8513C59.1048 66.4229 59.3998 65.9945 59.6808 65.566C59.7089 65.5232 59.7229 65.4946 59.751 65.4518C60.3692 64.5378 60.9452 63.6095 61.4931 62.6669C62.9121 60.2105 64.0922 57.697 65.0195 55.1407C65.2021 54.6408 65.3707 54.141 65.5393 53.6554C64.879 53.7554 64.3592 53.9267 63.8955 54.1267C63.8955 54.1267 63.8394 54.1552 63.8113 54.1552C63.7972 54.1552 63.7691 54.1552 63.7551 54.1695C63.5162 54.2838 63.2774 54.3837 63.0666 54.498C62.1815 54.9264 61.4088 55.2977 59.7791 55.2977C58.1494 55.2977 57.3767 54.9264 56.4916 54.498C55.5784 54.0553 54.5247 53.5411 52.5438 53.5411C50.5629 53.5411 49.5232 54.0553 48.596 54.498C47.7109 54.9264 46.9382 55.2977 45.3085 55.2977C43.6788 55.2977 42.9061 54.9264 42.021 54.498C41.6838 54.3409 41.3325 54.1695 40.9251 54.0124L39.6466 48.0286L41.0375 48.3142L40.1946 44.5296L44.7746 39.9025L47.7952 42.1589L52.5298 37.3033L57.2643 42.1589L60.2849 39.9025L65.6938 45.4865L67.0566 46.886C67.1269 46.4005 67.169 45.9149 67.2252 45.4151C67.2252 45.4151 67.2252 45.2723 67.2393 45.2151C67.2393 45.1152 67.2533 45.0152 67.2674 44.9152C67.5624 41.2735 67.3938 37.5318 66.7616 33.7472" fill="#231F20"/>
<path d="M48.2725 60.4679C48.4411 60.3965 48.5956 60.3251 48.7501 60.2537V59.0684C48.7501 59.0684 48.6939 59.0969 48.6658 59.1112C48.5394 59.1683 48.3989 59.2397 48.2725 59.2969C47.5279 59.6396 46.713 59.9395 45.28 59.9395C43.7205 59.9395 42.9057 59.5968 42.0908 59.2112V60.3965C42.8635 60.7393 43.7908 61.0249 45.28 61.0249C46.6428 61.0249 47.5279 60.7821 48.2725 60.4822" fill="#231F20"/>
<path d="M48.2729 63.6666C47.5282 64.0094 46.7134 64.3093 45.2804 64.3093C44.1845 64.3093 43.454 64.1379 42.8358 63.8951V65.0376C43.468 65.2376 44.2267 65.3804 45.2804 65.3804C46.6431 65.3804 47.5282 65.1376 48.2729 64.8377C48.4414 64.7663 48.596 64.6949 48.7505 64.6235V63.4238C48.7505 63.4238 48.6943 63.4524 48.6662 63.4667C48.5398 63.5381 48.3993 63.5952 48.2729 63.6523" fill="#231F20"/>
<path d="M48.2728 68.0371C47.5282 68.3798 46.7133 68.6798 45.2803 68.6798C44.7183 68.6798 44.2547 68.6369 43.8613 68.5655V69.6652C44.2688 69.7366 44.7464 69.7651 45.2803 69.7651C46.6431 69.7651 47.5282 69.5224 48.2728 69.2224C48.4414 69.151 48.5959 69.0796 48.7505 69.0082V67.8086C48.7505 67.8086 48.6943 67.8372 48.6662 67.8514C48.5397 67.9228 48.3992 67.98 48.2728 68.0371Z" fill="#231F20"/>
<path d="M10.3818 28.263L10.9719 28.6771L17.1816 20.0655V18.9658H16.1561L10.3818 28.263Z" fill="#231F20"/>
<path d="M45.5332 50.0422V46.3291H44.0018V47.2288H44.5076V50.0422H45.5332Z" fill="#231F20"/>
<path d="M49.8744 49.2995C49.6777 49.2995 49.5091 49.1281 49.5091 48.9139C49.5091 48.6997 49.6777 48.514 49.8744 48.514C50.0711 48.514 50.2397 48.6854 50.2397 48.9139C50.2397 49.1424 50.0711 49.2995 49.8744 49.2995ZM49.8744 47.6428C49.6918 47.6428 49.5372 47.4858 49.5372 47.2858C49.5372 47.0859 49.6918 46.9288 49.8744 46.9288C50.0571 46.9288 50.2116 47.0859 50.2116 47.2858C50.2116 47.4858 50.0571 47.6428 49.8744 47.6428ZM48.4695 49.0281C48.4695 49.7708 49.2001 50.1706 49.8744 50.1706C50.5488 50.1706 51.2793 49.7708 51.2793 49.0281C51.2793 48.5997 51.0546 48.2569 50.6471 48.0713C50.9422 47.9142 51.1248 47.6 51.1248 47.2573C51.1248 46.5146 50.4645 46.1719 49.8604 46.1719C49.2563 46.1719 48.5959 46.5146 48.5959 47.2573C48.5959 47.6143 48.7786 47.9285 49.0736 48.0713C48.6802 48.2427 48.4414 48.5854 48.4414 49.0281" fill="#231F20"/>
<path d="M55.3673 48.2571C55.6623 48.2571 55.8871 48.4856 55.8871 48.7855C55.8871 49.0854 55.6623 49.3282 55.3673 49.3282C55.0723 49.3282 54.8334 49.0854 54.8334 48.7855C54.8334 48.4856 55.0723 48.2571 55.3673 48.2571ZM55.1847 46.3291L54.412 47.3574C54.145 47.7144 53.8359 48.2428 53.8359 48.8141C53.8359 49.1997 54.0186 49.5852 54.3277 49.8423C54.5805 50.0423 54.9599 50.1708 55.3673 50.1708C56.126 50.1708 56.9408 49.7281 56.9408 48.7569C56.9408 48.1143 56.5193 47.443 55.7466 47.443C55.6202 47.443 55.5078 47.4573 55.3954 47.5002L56.3648 46.3291H55.1847Z" fill="#231F20"/>
<path d="M60.7348 49.2995C60.5381 49.2995 60.3695 49.1281 60.3695 48.9139C60.3695 48.6997 60.5381 48.514 60.7348 48.514C60.9315 48.514 61.1001 48.6854 61.1001 48.9139C61.1001 49.1424 60.9315 49.2995 60.7348 49.2995ZM60.7348 47.6428C60.5521 47.6428 60.3976 47.4858 60.3976 47.2858C60.3976 47.0859 60.5521 46.9288 60.7348 46.9288C60.9174 46.9288 61.072 47.0859 61.072 47.2858C61.072 47.4858 60.9174 47.6428 60.7348 47.6428ZM59.3299 49.0281C59.3299 49.7708 60.0604 50.1706 60.7348 50.1706C61.4091 50.1706 62.1397 49.7708 62.1397 49.0281C62.1397 48.5997 61.9149 48.2569 61.5075 48.0713C61.8025 47.9142 61.9852 47.6 61.9852 47.2573C61.9852 46.5146 61.3248 46.1719 60.7207 46.1719C60.1166 46.1719 59.4563 46.5146 59.4563 47.2573C59.4563 47.6143 59.6389 47.9285 59.934 48.0713C59.5406 48.2427 59.3018 48.5854 59.3018 49.0281" fill="#231F20"/>
<path d="M87.8778 50.442C89.3108 50.442 90.5893 50.7276 91.7414 51.0418L93.5818 50.442V55.7261L92.9355 55.8832L91.7554 54.0123C90.6034 52.2129 89.6059 51.7559 87.9902 51.7559C84.5903 51.7559 82.792 54.6978 82.792 60.1248C82.792 65.5517 84.9415 67.8509 88.2712 67.8509C89.9571 67.8509 91.5166 67.5653 93.5959 65.923L94.2843 66.9084C92.9777 68.7507 90.6455 69.6932 87.9902 69.6932C83.0028 69.6932 79.5186 66.3086 79.5186 60.1248C79.5186 53.9409 83.073 50.4277 87.8919 50.4277" fill="white"/>
<path d="M101.154 68.3794C103.613 68.3794 104.512 66.0087 104.512 62.4812C104.512 58.9537 103.613 56.5973 101.154 56.5973C98.6954 56.5973 97.7541 58.968 97.7541 62.4812C97.7541 65.9944 98.6532 68.3794 101.154 68.3794ZM101.154 69.7076C97.2905 69.7076 94.7616 67.2084 94.7616 62.4812C94.7616 57.7541 97.2905 55.2549 101.154 55.2549C105.018 55.2549 107.504 57.7541 107.504 62.4812C107.504 67.2084 104.975 69.7076 101.154 69.7076Z" fill="white"/>
<path d="M114.079 68.465L113.672 69.3933H107.687V68.4936L109.162 67.9937V50.9561L107.35 49.4994V49.1424L111.396 47.8142H111.902V67.8652L114.079 68.465Z" fill="white"/>
<path d="M120.809 68.465L120.401 69.3933H114.43V68.4936L115.892 67.9937V50.9561L114.079 49.4994V49.1424L118.125 47.8142H118.631V67.8652L120.809 68.465Z" fill="white"/>
<path d="M123.113 60.5251H128.817C128.845 60.3108 128.845 59.8967 128.845 59.6682C128.845 57.6688 128.072 56.6263 126.443 56.6263C124.939 56.6263 123.548 57.8259 123.113 60.5251ZM127.229 67.6514C128.761 67.6514 129.842 67.2373 131.093 66.3518L131.5 67.0802C130.376 68.8225 128.789 69.708 126.386 69.708C123.057 69.708 120.401 67.3658 120.401 62.6101C120.401 57.8545 123.324 55.2695 126.822 55.2695C129.632 55.2695 131.655 57.0404 131.655 60.2394C131.655 60.7393 131.627 61.282 131.5 61.8818H123.029C123.029 65.5235 124.616 67.6514 127.229 67.6514Z" fill="white"/>
<path d="M138.131 56.7257C136.234 56.7257 135.771 57.9967 135.771 60.0532C135.771 62.1097 136.234 63.3522 138.131 63.3522C140.028 63.3522 140.533 62.0812 140.533 60.0532C140.533 58.0253 140.07 56.7257 138.131 56.7257ZM134.675 72.4351C134.675 74.3345 135.883 75.0629 138.131 75.0629C140.814 75.0629 142.809 74.2346 142.809 71.8924C142.809 70.4072 141.995 69.7645 140.323 69.7645H136.178C135.209 70.3072 134.689 71.1927 134.689 72.4208M140.955 67.1939C143.54 67.1939 145.31 68.5935 145.31 71.2498C145.31 74.863 141.91 76.3768 137.962 76.3768C134.534 76.3768 131.978 75.3342 131.978 72.7636C131.978 70.9213 133.158 69.9502 135.181 69.3789V69.2504C133.692 69.0647 132.877 68.0793 132.877 66.7512C132.877 65.423 133.818 64.4376 135.532 64.1234C133.944 63.495 132.877 62.224 132.877 60.1675C132.877 57.5111 134.689 55.2547 138.243 55.2547C139.859 55.2547 141.39 55.5974 143.076 56.4258C142.95 56.2115 142.922 55.9545 142.922 55.6689C142.922 54.712 143.582 54.1836 144.425 54.1836C145.395 54.1836 145.914 54.8548 145.914 55.7974C145.914 56.74 145.324 57.4397 144.102 57.4397C143.385 57.4397 142.725 57.2826 141.671 56.8399V57.1255C142.613 57.6254 143.442 58.7965 143.442 60.1675C143.442 63.238 140.702 64.609 138.243 64.609C137.625 64.609 137.063 64.5376 136.558 64.3805C135.743 64.7661 135.125 65.2373 135.125 66.0657C135.125 66.894 135.56 67.2082 136.459 67.2082H140.941L140.955 67.1939Z" fill="white"/>
<path d="M147.727 60.5251H153.431C153.459 60.3108 153.459 59.8967 153.459 59.6682C153.459 57.6688 152.686 56.6263 151.057 56.6263C149.554 56.6263 148.163 57.8259 147.727 60.5251ZM151.844 67.6514C153.375 67.6514 154.457 67.2373 155.707 66.3518L156.114 67.0802C154.991 68.8225 153.403 69.708 151.001 69.708C147.671 69.708 145.016 67.3658 145.016 62.6101C145.016 57.8545 147.938 55.2695 151.436 55.2695C154.246 55.2695 156.269 57.0404 156.269 60.2394C156.269 60.7393 156.241 61.282 156.114 61.8818H147.643C147.643 65.5235 149.23 67.6514 151.844 67.6514Z" fill="white"/>
<path d="M166.862 68.3794C169.321 68.3794 170.234 66.0087 170.234 62.4812C170.234 58.9537 169.335 56.5973 166.862 56.5973C164.389 56.5973 163.462 58.968 163.462 62.4812C163.462 65.9944 164.361 68.3794 166.862 68.3794ZM166.862 69.7076C162.999 69.7076 160.47 67.2084 160.47 62.4812C160.47 57.7541 162.999 55.2549 166.862 55.2549C170.726 55.2549 173.212 57.7541 173.212 62.4812C173.212 67.2084 170.683 69.7076 166.862 69.7076Z" fill="white"/>
<path d="M180.729 68.4368L180.321 69.3937H173.718V68.5082L175.179 67.9941V57.0689H172.903V55.9978L175.179 55.4836V54.6268C175.179 49.9996 177.792 47.6289 181.066 47.6289C182.836 47.6289 184.55 48.3001 184.55 50.0996C184.55 51.1707 183.834 51.9419 182.864 51.9419C181.965 51.9419 181.178 51.3706 181.178 50.3566C181.178 49.6997 181.459 49.1284 181.839 48.8428C181.501 48.7429 181.277 48.7143 180.939 48.7143C178.916 48.7143 177.919 50.3566 177.919 53.4271V55.5836H181.726L181.473 57.0689H177.919V67.8655L180.729 68.4368Z" fill="white"/>
<path d="M191.659 60.9242H192.782C195.873 60.9242 197.363 59.7817 197.363 56.397C197.363 53.3836 195.901 52.1269 192.754 52.1269H191.659V60.9242ZM191.659 62.2809V67.6364L194.932 68.2648L194.679 69.3787H186.699L186.446 68.3647L188.778 67.6364V52.4982L186.446 51.7698L186.699 50.7559H193.33C197.25 50.7559 200.341 52.184 200.341 56.397C200.341 60.9527 196.66 62.2809 193.33 62.2809H191.644H191.659Z" fill="white"/>
<path d="M209.951 59.9536C209.951 58.1827 208.926 57.5115 207.675 57.5115C206.58 57.5115 205.301 58.0113 204.472 58.7825V67.8654L206.65 68.4652L206.242 69.3793H200.257V68.4938L201.719 67.9511V50.9421L199.906 49.4854V49.1426L203.952 47.8145H204.444V57.6971H204.571C205.723 55.9262 207.591 55.2265 208.996 55.2265C210.808 55.2265 212.677 56.169 212.677 59.4109V67.8654L214.855 68.4652L214.447 69.3793H208.462V68.4938L209.923 67.9511V59.9393L209.951 59.9536Z" fill="white"/>
<path d="M221.302 63.0529C218.9 63.0529 217.467 63.6241 217.467 65.7092C217.467 67.1087 218.31 67.8657 219.588 67.8657C220.642 67.8657 221.401 67.58 222.117 66.7946V63.0529H221.302ZM224.857 66.4661C224.857 67.9228 225.391 68.3084 227.161 68.0513L227.259 68.7511C226.571 69.3795 225.77 69.708 224.576 69.708C223.382 69.708 222.525 69.1081 222.3 67.8085H222.173C221.611 69.0082 220.15 69.708 218.619 69.708C216.287 69.708 214.699 68.4369 214.699 65.852C214.699 63.0957 216.793 61.6961 220.277 61.6961C220.867 61.6961 221.583 61.7675 222.117 61.8818V60.2109C222.117 58.34 220.937 57.426 219.223 57.426C218.043 57.426 216.793 57.7688 215.486 58.7542L215.079 57.8402C216.413 56.1264 218.127 55.2695 220.375 55.2695C222.623 55.2695 224.857 56.6691 224.857 59.4825V66.4804V66.4661Z" fill="white"/>
<path d="M234.509 68.4368L234.102 69.3936H227.499V68.5082L228.96 67.9941V58.7826L227.471 57.0689V56.7261L231.208 55.2694H231.671L231.573 58.5256H231.7C232.472 56.7547 233.877 55.2266 235.661 55.2266C237.123 55.2266 237.965 56.0549 237.965 57.2831C237.965 58.5113 237.122 59.2111 236.153 59.2111C235.029 59.2111 234.383 58.3827 234.383 57.2831C233.329 57.6972 232.486 58.6398 231.7 59.8109V67.8513L234.509 68.4225V68.4368Z" fill="white"/>
<path d="M250.399 67.8652L252.576 68.465L252.169 69.379H246.184V68.4935L247.645 67.9509V60.039C247.645 58.2681 246.704 57.5969 245.552 57.5969C244.526 57.5969 243.304 58.1681 242.461 58.9251V67.8509L244.638 68.4507L244.231 69.3647H238.246V68.4793L239.707 67.9794V58.768L238.204 57.0542V56.7115L241.941 55.2548H242.405L242.306 57.9111H242.433C243.809 55.7546 245.397 55.2119 246.788 55.2119C248.179 55.2119 249.724 55.9403 250.216 57.9111H250.342C251.719 55.7546 253.307 55.2119 254.698 55.2119C256.51 55.2119 258.252 56.3259 258.252 59.5534V67.8509L260.43 68.4507L260.022 69.3647H254.037V68.4793L255.498 67.9366V60.0247C255.498 58.2538 254.571 57.5826 253.405 57.5826C252.379 57.5826 251.157 58.1539 250.314 58.9108V67.8366L250.399 67.8652Z" fill="white"/>
<path d="M266.907 63.0529C264.504 63.0529 263.071 63.6241 263.071 65.7092C263.071 67.1087 263.914 67.8657 265.193 67.8657C266.247 67.8657 267.005 67.58 267.722 66.7946V63.0529H266.907ZM270.461 66.4661C270.461 67.9228 270.995 68.3084 272.765 68.0513L272.864 68.7511C272.175 69.3795 271.374 69.708 270.18 69.708C268.986 69.708 268.129 69.1081 267.904 67.8085H267.778C267.216 69.0082 265.755 69.708 264.223 69.708C261.891 69.708 260.304 68.4369 260.304 65.852C260.304 63.0957 262.397 61.6961 265.881 61.6961C266.471 61.6961 267.188 61.7675 267.722 61.8818V60.2109C267.722 58.34 266.542 57.426 264.828 57.426C263.647 57.426 262.397 57.7688 261.09 58.7542L260.683 57.8402C262.018 56.1264 263.732 55.2695 265.98 55.2695C268.227 55.2695 270.461 56.6691 270.461 59.4825V66.4804V66.4661Z" fill="white"/>
<path d="M278.876 56.5977C276.291 56.5977 274.703 58.6828 274.703 62.1103C274.703 65.5378 276.291 67.6514 279.031 67.6514C280.435 67.6514 281.489 67.1516 282.641 66.3518L283.049 67.0802C281.714 69.1081 279.958 69.708 277.935 69.708C274.633 69.708 272.076 67.1802 272.076 62.553C272.076 57.9259 275.097 55.2695 278.862 55.2695C281.011 55.2695 282.824 56.0978 282.824 57.9973C282.824 59.1398 282.079 59.9252 281.054 59.9252C280.084 59.9252 279.283 59.2969 279.283 58.1544C279.283 57.5831 279.564 57.0404 279.972 56.7262C279.691 56.6691 279.438 56.5977 278.876 56.5977Z" fill="white"/>
<path d="M284.046 57.2545L282.712 56.3977L282.922 55.5693H288.682L288.907 56.5262L286.912 57.0403L289.118 62.9956C289.989 65.3663 290.144 67.023 290.144 67.023H290.27C290.27 67.023 290.804 64.995 291.45 62.9671L293.291 57.1974L291.239 56.4976L291.422 55.5836H296.41L296.592 56.4976L295.159 57.0974L290.832 69.0938C288.865 74.5064 287.221 76.2201 284.664 76.2201C283.049 76.2201 282.178 75.2633 282.178 74.0637C282.178 72.9211 282.866 72.2214 283.948 72.2214C284.917 72.2214 285.535 72.9211 285.535 73.8352C285.535 74.3064 285.381 74.692 285.226 74.9205C286.477 74.9205 288.092 72.607 288.963 69.8507L284.046 57.2403V57.2545Z" fill="white"/>
</g>
</g>
<defs>
<clipPath id="clip0_2019_7504">
<rect width="297" height="93" fill="white"/>
</clipPath>
</defs>
</svg>
