<svg width="15" height="12" viewBox="0 0 15 12" fill="none" xmlns="http://www.w3.org/2000/svg">
<path d="M12.793 0.75C13.5039 0.75 14.1055 1.35156 14.1055 2.0625C14.1055 2.5 13.8867 2.88281 13.5586 3.12891L7.625 7.58594C7.29688 7.83203 6.88672 7.83203 6.55859 7.58594L0.625 3.12891C0.296875 2.88281 0.105469 2.5 0.105469 2.0625C0.105469 1.35156 0.679688 0.75 1.41797 0.75H12.793ZM6.03906 8.29688C6.66797 8.76172 7.51562 8.76172 8.14453 8.29688L14.1055 3.8125V9.5C14.1055 10.4844 13.3125 11.25 12.3555 11.25H1.85547C0.871094 11.25 0.105469 10.4844 0.105469 9.5V3.8125L6.03906 8.29688Z" fill="#003B5C"/>
</svg>
