<svg width="12" height="17" viewBox="0 0 12 17" fill="none" xmlns="http://www.w3.org/2000/svg">
<path d="M9.60547 0.5C10.6992 0.5 11.6055 1.40625 11.6055 2.5V14.5C11.6055 15.625 10.6992 16.5 9.60547 16.5H2.60547C1.48047 16.5 0.605469 15.625 0.605469 14.5V2.5C0.605469 1.40625 1.48047 0.5 2.60547 0.5H9.60547ZM6.10547 15.5C6.63672 15.5 7.10547 15.0625 7.10547 14.5C7.10547 13.9688 6.63672 13.5 6.10547 13.5C5.54297 13.5 5.10547 13.9688 5.10547 14.5C5.10547 15.0625 5.54297 15.5 6.10547 15.5ZM9.60547 2.5H2.60547V12.5H9.60547V2.5Z" fill="#003B5C"/>
</svg>
