<svg width="16" height="16" viewBox="0 0 16 16" fill="none" xmlns="http://www.w3.org/2000/svg">
<path d="M15.4275 13.3849C15.859 13.8452 15.859 14.5643 15.4275 15.0245C14.9673 15.456 14.2482 15.456 13.788 15.0245L10.365 11.5728C9.18568 12.3494 7.74747 12.7521 6.1942 12.5508C3.5479 12.1768 1.41934 10.0195 1.07417 7.40199C0.585183 3.49006 3.89307 0.182173 7.805 0.671165C10.4225 1.01634 12.5799 3.14489 12.9538 5.79119C13.1551 7.34446 12.7524 8.78267 11.9758 9.93324L15.4275 13.3849ZM3.31778 6.59659C3.31778 8.63885 4.95734 10.2784 6.9996 10.2784C9.01309 10.2784 10.6814 8.63885 10.6814 6.59659C10.6814 4.5831 9.01309 2.91477 6.9996 2.91477C4.95734 2.91477 3.31778 4.5831 3.31778 6.59659Z" fill="#D73F09"/>
</svg>
